<svg id="svg" fill="#000000" stroke="#000000" width="55" height="55" version="1.1" viewBox="144 144 512 512" xmlns="http://www.w3.org/2000/svg">
    <g id="IconSvg_bgCarrier" stroke-width="0"></g>
    <g id="IconSvg_tracerCarrier" stroke-linecap="round" stroke-linejoin="round" stroke="#CCCCCC" stroke-width="0">
      <g xmlns="http://www.w3.org/2000/svg">
  <path d="m377.02 427.02c-2.2148-3.4336-6.793-4.4258-10.152-2.2148-2.3672 1.5273-4.2734 3.4336-5.8789 5.0391-0.99219 0.99219-1.9844 2.0625-3.1289 2.9023-2.9766 2.1367-7.25 2.2891-10.305 1.9844-11.984-0.99219-24.047-9.3906-31.375-21.754-6.2578-10.609-9.6172-24.121-10.383-41.375-0.60938-13.742 0.83984-23.359 4.6562-31.223 3.6641-7.5586 11.527-15.344 20.992-15.648 6.7188-0.15234 13.969 3.3594 20.305 6.4883 5.4961 2.6719 9.8477 5.0391 11.984 8.5508 1.0703 1.7539 2.1367 3.6641 3.207 5.5742 4.2734 8.0156 9.6953 17.938 21.527 21.297 14.047 3.9688 31.906-4.582 41.527-14.656l2.0625-2.2148c2.4414-2.6719 5.418-5.6484 7.0977-5.7266 1.1445 0 2.9766 1.9102 3.5117 4.2734 0.76172 3.5859-0.23047 8.0156-1.2227 12.289-0.91797 3.9688 1.5273 7.9375 5.4961 8.8555 3.9688 0.91797 7.9375-1.5273 8.8555-5.4961 1.2227-5.3438 2.8242-11.984 1.2969-18.855-1.6797-7.7852-8.3203-15.727-17.633-15.879-8.3203 0.078125-14.121 6.0312-18.242 10.457l-1.7539 1.9102c-6.4883 6.793-19.16 12.824-26.871 10.688-5.418-1.5273-8.3984-6.3359-12.52-14.121-1.2227-2.2148-2.3672-4.3516-3.5859-6.4141-4.582-7.3281-12.289-11.145-17.938-13.969-7.5586-3.7422-16.793-8.3203-27.328-8.0156-13.664 0.45703-26.945 9.8477-33.738 23.969-6.4141 13.207-6.5664 28.168-6.1055 38.242 0.83984 19.695 4.9609 35.496 12.441 48.168 9.8477 16.719 25.879 27.559 42.746 28.93 1.1445 0.078125 2.2891 0.15234 3.4336 0.15234 6.4883 0 12.215-1.6016 16.641-4.8086 2.0625-1.4492 3.6641-3.0547 5.1133-4.5039 1.2227-1.2227 2.3672-2.3672 3.4336-3.0547 3.0508-1.8984 4.043-6.4805 1.832-9.8398z"></path>
  <path d="m574.65 396.11c1.6797-10.535 2.5938-21.223 2.5938-32.062 0-18.016-2.2891-35.879-6.8711-53.129-23.965-91.371-106.87-155.19-201.45-155.19-13.207 0-26.41 1.2227-39.234 3.6641-53.359 10.23-100 40.457-131.22 85.113-24.734 35.113-37.785 76.488-37.785 119.54 0 79.312 46.105 152.98 117.55 187.55 28.32 13.742 58.855 20.688 90.688 20.688 5.9531 0 11.832-0.38281 17.633-0.91797 22.215 43.207 67.176 72.824 119.01 72.824 73.816 0 133.82-60 133.82-133.82-0.082031-48.395-26.035-90.836-64.738-114.27zm-22.977-95.723c-18.168-6.0312-37.48-8.3203-56.641-6.5664-6.5664 0.60938-13.055 1.6797-19.312 2.6719-8.0898 1.375-15.727 2.5938-23.512 2.9023-8.625 0.38281-24.578-0.38281-34.887-10.383-1.9102-1.9102-3.1289-3.6641-3.7422-5.1914-0.60938-1.7539-0.6875-4.1211-0.76172-6.6406v-0.99219c-0.83984-18.625-5.418-32.672-14.121-42.977-9.4648-11.223-22.52-16.641-35.113-21.906-6.0312-2.5195-11.754-4.8867-17.023-7.8633-4.0469-2.2891-10.84-6.9453-11.449-12.52-0.22656-2.0625 0.38281-4.6562 1.0703-7.4805l0.53516-2.2891c0.6875-2.75 0.99219-5.4961 1.2969-8.168 10.152-1.6016 20.535-2.5195 30.914-2.5195 82.898 0 156.03 52.746 182.75 129.92zm-376.25 63.66c0-37.633 10.84-73.816 31.223-105.19 16.336 10.383 32.52 21.68 49.387 34.578 3.0547 2.2891 5.9531 4.582 7.4062 7.3281 1.7539 3.207 1.9844 7.8633 0.6875 14.199-2.0625 10.609-6.7188 20.84-13.359 29.617-2.1367 2.75-4.4258 5.3438-6.7188 7.9375-7.1758 8.168-14.578 16.566-17.176 28.32-1.4492 7.25-0.6875 14.504 0.15234 20.762 2.2891 16.641 7.4062 40.305 25.418 53.969 11.07 8.3984 24.273 11.223 37.023 13.895 3.4336 0.76172 6.9453 1.4492 10.383 2.2891 9.0078 2.2148 15.266 5.0391 19.617 9.0078 4.7344 4.1992 7.1758 10.535 5.8008 15.496-0.83984 3.207-3.4336 6.4883-6.1836 9.543-9.4648 10.609-21.375 20.074-38.016 30.535-64.27-32.672-105.64-99.844-105.64-172.29zm193.51 193.51c-25.039 0-49.16-4.6562-71.984-13.895 13.742-9.2383 24.352-18.09 33.207-27.938 4.0469-4.5039 7.9375-9.543 9.4648-15.648 2.8242-10.305-1.2227-22.215-10.23-30.23-8.2461-7.4062-18.777-10.609-25.953-12.367-3.5859-0.91797-7.1758-1.6797-10.84-2.4414-11.68-2.4414-22.746-4.8086-31.145-11.223-10.383-7.9375-16.719-21.984-19.77-44.273-0.6875-5.0391-1.2969-10.84-0.30469-15.727 1.7539-7.8633 7.6328-14.578 13.816-21.602 2.5195-2.8242 5.0391-5.7266 7.3281-8.7031 8.0156-10.535 13.586-22.902 16.105-35.648 1.9844-9.9219 1.2969-17.785-2.2148-24.199-2.9023-5.3438-7.4805-9.0078-11.449-11.984-17.023-12.977-33.359-24.426-49.848-34.961 26.871-35.418 64.578-60.227 107.63-70.762-0.15234 0.60938-0.15234 1.2227-0.30469 1.832l-0.53516 2.1367c-0.91797 3.6641-1.9102 7.7852-1.4492 12.367 0.91797 9.2383 7.4062 17.559 18.855 23.969 6.0312 3.3594 12.441 6.0312 18.625 8.625 11.527 4.8086 22.367 9.3125 29.543 17.863 6.4883 7.7109 10 18.855 10.688 34.047v0.83984c0.078125 3.4336 0.23047 7.25 1.6016 11.297 1.375 3.7422 3.6641 7.1758 7.25 10.688 10.609 10.305 26.945 15.496 45.879 14.578 8.625-0.38281 17.098-1.7539 25.266-3.1289 6.2578-1.0703 12.215-1.9844 18.32-2.5938 20.688-1.9844 41.527 1.375 60.457 9.543 3.6641 14.961 5.6484 30.457 5.6484 46.031 0 8.3203-0.60938 16.566-1.6797 24.656-16.871-7.7109-35.57-12.062-55.266-12.062-73.816 0-133.82 60-133.82 133.82 0 16.41 3.1289 32.062 8.5508 46.641-3.8906 0.22656-7.6328 0.45703-11.449 0.45703zm136.56 71.984c-65.648 0-119.08-53.434-119.08-119.08 0-65.648 53.434-119.08 119.08-119.08 65.648 0 119.08 53.434 119.08 119.08 0 65.645-53.434 119.08-119.08 119.08z"></path>
  <path d="m505.49 430.23c4.0469 0 7.3281-3.2812 7.3281-7.3281v-10.457c0-4.0469-3.2812-7.3281-7.3281-7.3281-4.0469 0-7.3281 3.2812-7.3281 7.3281v10.457c0 3.9688 3.2852 7.3281 7.3281 7.3281z"></path>
  <path d="m505.49 590.76c-4.0469 0-7.3281 3.2812-7.3281 7.3281v10.457c0 4.0469 3.2812 7.3281 7.3281 7.3281 4.0469 0 7.3281-3.2812 7.3281-7.3281v-10.457c0.078126-4.043-3.2031-7.3281-7.3281-7.3281z"></path>
  <path d="m462.82 421.83c-2.0625-3.5117-6.5664-4.7344-10.078-2.6719-3.5117 2.0625-4.7344 6.5664-2.6719 10.078l5.2656 9.082c1.375 2.3672 3.8164 3.6641 6.4141 3.6641 1.2227 0 2.5195-0.30469 3.6641-0.99219 3.5117-2.0625 4.7344-6.5664 2.6719-10.078z"></path>
  <path d="m555.72 582.67c-2.0625-3.5117-6.5664-4.7344-10.078-2.6719s-4.7344 6.5664-2.6719 10.078l5.2656 9.082c1.375 2.3672 3.8164 3.6641 6.4141 3.6641 1.2227 0 2.5195-0.30469 3.6641-0.99219 3.5117-2.0625 4.7344-6.5664 2.6719-10.078z"></path>
  <path d="m416.87 467.79 9.082 5.1914c1.1445 0.6875 2.4414 0.99219 3.6641 0.99219 2.5195 0 5.0391-1.2969 6.4141-3.6641 2.0625-3.5117 0.83984-8.0156-2.6719-10.078l-9.082-5.2656c-3.5117-2.0625-8.0156-0.83984-10.078 2.6719-2.0586 3.6641-0.83984 8.0898 2.6719 10.152z"></path>
  <path d="m594.12 553.12-9.082-5.2656c-3.5117-2.0625-8.0156-0.83984-10.078 2.6719s-0.83984 8.0156 2.6719 10.078l9.082 5.2656c1.1445 0.6875 2.4414 0.99219 3.6641 0.99219 2.5195 0 5.0391-1.2969 6.4141-3.6641 2.0625-3.5117 0.91797-8.0156-2.6719-10.078z"></path>
  <path d="m425.27 510.45c0-4.0469-3.2812-7.3281-7.3281-7.3281h-10.457c-4.0469 0-7.3281 3.2812-7.3281 7.3281s3.2812 7.3281 7.3281 7.3281h10.457c4.0469 0.078125 7.3281-3.2812 7.3281-7.3281z"></path>
  <path d="m603.58 503.12h-10.457c-4.0469 0-7.3281 3.2812-7.3281 7.3281s3.2812 7.3281 7.3281 7.3281h10.457c4.0469 0 7.3281-3.2812 7.3281-7.3281 0-4.043-3.2031-7.3281-7.3281-7.3281z"></path>
  <path d="m425.95 547.86-9.082 5.2656c-3.5117 2.0625-4.7344 6.5664-2.6719 10.078 1.375 2.3672 3.8164 3.6641 6.4141 3.6641 1.2227 0 2.5195-0.30469 3.6641-0.99219l9.082-5.2656c3.5117-2.0625 4.7344-6.5664 2.6719-10.078-2.0625-3.4375-6.5664-4.6562-10.078-2.6719z"></path>
  <path d="m581.45 474.04c1.2227 0 2.5195-0.30469 3.6641-0.99219l9.082-5.1914c3.5117-2.0625 4.7344-6.5664 2.6719-10.078s-6.5664-4.7344-10.078-2.6719l-9.082 5.2656c-3.5117 2.0625-4.7344 6.5664-2.6719 10.078 1.375 2.2148 3.8203 3.5898 6.4141 3.5898z"></path>
  <path d="m465.42 580c-3.5117-2.0625-8.0156-0.83984-10.078 2.6719l-5.2656 9.082c-2.0625 3.5117-0.83984 8.0156 2.6719 10.078 1.1445 0.6875 2.4414 0.99219 3.6641 0.99219 2.5195 0 5.0391-1.2969 6.4141-3.6641l5.2656-9.082c2.0586-3.5898 0.83984-8.0938-2.6719-10.078z"></path>
  <path d="m558.24 419.16c-3.5117-2.0625-8.0156-0.83984-10.078 2.6719l-5.2656 9.082c-2.0625 3.5117-0.83984 8.0156 2.6719 10.078 1.1445 0.6875 2.4414 0.99219 3.6641 0.99219 2.5195 0 5.0391-1.2969 6.4141-3.6641l5.2656-9.082c2.0586-3.5898 0.83594-8.0938-2.6719-10.078z"></path>
  <path d="m525.42 521.75c1.375-2.9023 2.2148-6.0312 2.2148-9.4648 0-9.6172-6.1836-17.711-14.734-20.762v-43.129c0-4.0469-3.2812-7.3281-7.3281-7.3281-4.0469 0-7.3281 3.2812-7.3281 7.3281v43.203c-8.5508 3.0547-14.734 11.145-14.734 20.762 0 12.215 9.9219 22.062 22.062 22.062 3.4336 0 6.5664-0.83984 9.4648-2.2148l12.289 12.289c1.4492 1.4492 3.3594 2.1367 5.1914 2.1367 1.9102 0 3.7422-0.6875 5.1914-2.1367 2.9023-2.9023 2.9023-7.5586 0-10.383zm-27.254-9.4688c0-4.0469 3.2812-7.3281 7.3281-7.3281 4.0469 0 7.3281 3.2812 7.3281 7.3281s-3.2812 7.3281-7.3281 7.3281c-4.043 0.078125-7.3281-3.2031-7.3281-7.3281z"></path>
 </g>

      </g>
     <g id="IconSvg_iconCarrier">
      <g xmlns="http://www.w3.org/2000/svg">
  <path d="m377.02 427.02c-2.2148-3.4336-6.793-4.4258-10.152-2.2148-2.3672 1.5273-4.2734 3.4336-5.8789 5.0391-0.99219 0.99219-1.9844 2.0625-3.1289 2.9023-2.9766 2.1367-7.25 2.2891-10.305 1.9844-11.984-0.99219-24.047-9.3906-31.375-21.754-6.2578-10.609-9.6172-24.121-10.383-41.375-0.60938-13.742 0.83984-23.359 4.6562-31.223 3.6641-7.5586 11.527-15.344 20.992-15.648 6.7188-0.15234 13.969 3.3594 20.305 6.4883 5.4961 2.6719 9.8477 5.0391 11.984 8.5508 1.0703 1.7539 2.1367 3.6641 3.207 5.5742 4.2734 8.0156 9.6953 17.938 21.527 21.297 14.047 3.9688 31.906-4.582 41.527-14.656l2.0625-2.2148c2.4414-2.6719 5.418-5.6484 7.0977-5.7266 1.1445 0 2.9766 1.9102 3.5117 4.2734 0.76172 3.5859-0.23047 8.0156-1.2227 12.289-0.91797 3.9688 1.5273 7.9375 5.4961 8.8555 3.9688 0.91797 7.9375-1.5273 8.8555-5.4961 1.2227-5.3438 2.8242-11.984 1.2969-18.855-1.6797-7.7852-8.3203-15.727-17.633-15.879-8.3203 0.078125-14.121 6.0312-18.242 10.457l-1.7539 1.9102c-6.4883 6.793-19.16 12.824-26.871 10.688-5.418-1.5273-8.3984-6.3359-12.52-14.121-1.2227-2.2148-2.3672-4.3516-3.5859-6.4141-4.582-7.3281-12.289-11.145-17.938-13.969-7.5586-3.7422-16.793-8.3203-27.328-8.0156-13.664 0.45703-26.945 9.8477-33.738 23.969-6.4141 13.207-6.5664 28.168-6.1055 38.242 0.83984 19.695 4.9609 35.496 12.441 48.168 9.8477 16.719 25.879 27.559 42.746 28.93 1.1445 0.078125 2.2891 0.15234 3.4336 0.15234 6.4883 0 12.215-1.6016 16.641-4.8086 2.0625-1.4492 3.6641-3.0547 5.1133-4.5039 1.2227-1.2227 2.3672-2.3672 3.4336-3.0547 3.0508-1.8984 4.043-6.4805 1.832-9.8398z"></path>
  <path d="m574.65 396.11c1.6797-10.535 2.5938-21.223 2.5938-32.062 0-18.016-2.2891-35.879-6.8711-53.129-23.965-91.371-106.87-155.19-201.45-155.19-13.207 0-26.41 1.2227-39.234 3.6641-53.359 10.23-100 40.457-131.22 85.113-24.734 35.113-37.785 76.488-37.785 119.54 0 79.312 46.105 152.98 117.55 187.55 28.32 13.742 58.855 20.688 90.688 20.688 5.9531 0 11.832-0.38281 17.633-0.91797 22.215 43.207 67.176 72.824 119.01 72.824 73.816 0 133.82-60 133.82-133.82-0.082031-48.395-26.035-90.836-64.738-114.27zm-22.977-95.723c-18.168-6.0312-37.48-8.3203-56.641-6.5664-6.5664 0.60938-13.055 1.6797-19.312 2.6719-8.0898 1.375-15.727 2.5938-23.512 2.9023-8.625 0.38281-24.578-0.38281-34.887-10.383-1.9102-1.9102-3.1289-3.6641-3.7422-5.1914-0.60938-1.7539-0.6875-4.1211-0.76172-6.6406v-0.99219c-0.83984-18.625-5.418-32.672-14.121-42.977-9.4648-11.223-22.52-16.641-35.113-21.906-6.0312-2.5195-11.754-4.8867-17.023-7.8633-4.0469-2.2891-10.84-6.9453-11.449-12.52-0.22656-2.0625 0.38281-4.6562 1.0703-7.4805l0.53516-2.2891c0.6875-2.75 0.99219-5.4961 1.2969-8.168 10.152-1.6016 20.535-2.5195 30.914-2.5195 82.898 0 156.03 52.746 182.75 129.92zm-376.25 63.66c0-37.633 10.84-73.816 31.223-105.19 16.336 10.383 32.52 21.68 49.387 34.578 3.0547 2.2891 5.9531 4.582 7.4062 7.3281 1.7539 3.207 1.9844 7.8633 0.6875 14.199-2.0625 10.609-6.7188 20.84-13.359 29.617-2.1367 2.75-4.4258 5.3438-6.7188 7.9375-7.1758 8.168-14.578 16.566-17.176 28.32-1.4492 7.25-0.6875 14.504 0.15234 20.762 2.2891 16.641 7.4062 40.305 25.418 53.969 11.07 8.3984 24.273 11.223 37.023 13.895 3.4336 0.76172 6.9453 1.4492 10.383 2.2891 9.0078 2.2148 15.266 5.0391 19.617 9.0078 4.7344 4.1992 7.1758 10.535 5.8008 15.496-0.83984 3.207-3.4336 6.4883-6.1836 9.543-9.4648 10.609-21.375 20.074-38.016 30.535-64.27-32.672-105.64-99.844-105.64-172.29zm193.51 193.51c-25.039 0-49.16-4.6562-71.984-13.895 13.742-9.2383 24.352-18.09 33.207-27.938 4.0469-4.5039 7.9375-9.543 9.4648-15.648 2.8242-10.305-1.2227-22.215-10.23-30.23-8.2461-7.4062-18.777-10.609-25.953-12.367-3.5859-0.91797-7.1758-1.6797-10.84-2.4414-11.68-2.4414-22.746-4.8086-31.145-11.223-10.383-7.9375-16.719-21.984-19.77-44.273-0.6875-5.0391-1.2969-10.84-0.30469-15.727 1.7539-7.8633 7.6328-14.578 13.816-21.602 2.5195-2.8242 5.0391-5.7266 7.3281-8.7031 8.0156-10.535 13.586-22.902 16.105-35.648 1.9844-9.9219 1.2969-17.785-2.2148-24.199-2.9023-5.3438-7.4805-9.0078-11.449-11.984-17.023-12.977-33.359-24.426-49.848-34.961 26.871-35.418 64.578-60.227 107.63-70.762-0.15234 0.60938-0.15234 1.2227-0.30469 1.832l-0.53516 2.1367c-0.91797 3.6641-1.9102 7.7852-1.4492 12.367 0.91797 9.2383 7.4062 17.559 18.855 23.969 6.0312 3.3594 12.441 6.0312 18.625 8.625 11.527 4.8086 22.367 9.3125 29.543 17.863 6.4883 7.7109 10 18.855 10.688 34.047v0.83984c0.078125 3.4336 0.23047 7.25 1.6016 11.297 1.375 3.7422 3.6641 7.1758 7.25 10.688 10.609 10.305 26.945 15.496 45.879 14.578 8.625-0.38281 17.098-1.7539 25.266-3.1289 6.2578-1.0703 12.215-1.9844 18.32-2.5938 20.688-1.9844 41.527 1.375 60.457 9.543 3.6641 14.961 5.6484 30.457 5.6484 46.031 0 8.3203-0.60938 16.566-1.6797 24.656-16.871-7.7109-35.57-12.062-55.266-12.062-73.816 0-133.82 60-133.82 133.82 0 16.41 3.1289 32.062 8.5508 46.641-3.8906 0.22656-7.6328 0.45703-11.449 0.45703zm136.56 71.984c-65.648 0-119.08-53.434-119.08-119.08 0-65.648 53.434-119.08 119.08-119.08 65.648 0 119.08 53.434 119.08 119.08 0 65.645-53.434 119.08-119.08 119.08z"></path>
  <path d="m505.49 430.23c4.0469 0 7.3281-3.2812 7.3281-7.3281v-10.457c0-4.0469-3.2812-7.3281-7.3281-7.3281-4.0469 0-7.3281 3.2812-7.3281 7.3281v10.457c0 3.9688 3.2852 7.3281 7.3281 7.3281z"></path>
  <path d="m505.49 590.76c-4.0469 0-7.3281 3.2812-7.3281 7.3281v10.457c0 4.0469 3.2812 7.3281 7.3281 7.3281 4.0469 0 7.3281-3.2812 7.3281-7.3281v-10.457c0.078126-4.043-3.2031-7.3281-7.3281-7.3281z"></path>
  <path d="m462.82 421.83c-2.0625-3.5117-6.5664-4.7344-10.078-2.6719-3.5117 2.0625-4.7344 6.5664-2.6719 10.078l5.2656 9.082c1.375 2.3672 3.8164 3.6641 6.4141 3.6641 1.2227 0 2.5195-0.30469 3.6641-0.99219 3.5117-2.0625 4.7344-6.5664 2.6719-10.078z"></path>
  <path d="m555.72 582.67c-2.0625-3.5117-6.5664-4.7344-10.078-2.6719s-4.7344 6.5664-2.6719 10.078l5.2656 9.082c1.375 2.3672 3.8164 3.6641 6.4141 3.6641 1.2227 0 2.5195-0.30469 3.6641-0.99219 3.5117-2.0625 4.7344-6.5664 2.6719-10.078z"></path>
  <path d="m416.87 467.79 9.082 5.1914c1.1445 0.6875 2.4414 0.99219 3.6641 0.99219 2.5195 0 5.0391-1.2969 6.4141-3.6641 2.0625-3.5117 0.83984-8.0156-2.6719-10.078l-9.082-5.2656c-3.5117-2.0625-8.0156-0.83984-10.078 2.6719-2.0586 3.6641-0.83984 8.0898 2.6719 10.152z"></path>
  <path d="m594.12 553.12-9.082-5.2656c-3.5117-2.0625-8.0156-0.83984-10.078 2.6719s-0.83984 8.0156 2.6719 10.078l9.082 5.2656c1.1445 0.6875 2.4414 0.99219 3.6641 0.99219 2.5195 0 5.0391-1.2969 6.4141-3.6641 2.0625-3.5117 0.91797-8.0156-2.6719-10.078z"></path>
  <path d="m425.27 510.45c0-4.0469-3.2812-7.3281-7.3281-7.3281h-10.457c-4.0469 0-7.3281 3.2812-7.3281 7.3281s3.2812 7.3281 7.3281 7.3281h10.457c4.0469 0.078125 7.3281-3.2812 7.3281-7.3281z"></path>
  <path d="m603.58 503.12h-10.457c-4.0469 0-7.3281 3.2812-7.3281 7.3281s3.2812 7.3281 7.3281 7.3281h10.457c4.0469 0 7.3281-3.2812 7.3281-7.3281 0-4.043-3.2031-7.3281-7.3281-7.3281z"></path>
  <path d="m425.95 547.86-9.082 5.2656c-3.5117 2.0625-4.7344 6.5664-2.6719 10.078 1.375 2.3672 3.8164 3.6641 6.4141 3.6641 1.2227 0 2.5195-0.30469 3.6641-0.99219l9.082-5.2656c3.5117-2.0625 4.7344-6.5664 2.6719-10.078-2.0625-3.4375-6.5664-4.6562-10.078-2.6719z"></path>
  <path d="m581.45 474.04c1.2227 0 2.5195-0.30469 3.6641-0.99219l9.082-5.1914c3.5117-2.0625 4.7344-6.5664 2.6719-10.078s-6.5664-4.7344-10.078-2.6719l-9.082 5.2656c-3.5117 2.0625-4.7344 6.5664-2.6719 10.078 1.375 2.2148 3.8203 3.5898 6.4141 3.5898z"></path>
  <path d="m465.42 580c-3.5117-2.0625-8.0156-0.83984-10.078 2.6719l-5.2656 9.082c-2.0625 3.5117-0.83984 8.0156 2.6719 10.078 1.1445 0.6875 2.4414 0.99219 3.6641 0.99219 2.5195 0 5.0391-1.2969 6.4141-3.6641l5.2656-9.082c2.0586-3.5898 0.83984-8.0938-2.6719-10.078z"></path>
  <path d="m558.24 419.16c-3.5117-2.0625-8.0156-0.83984-10.078 2.6719l-5.2656 9.082c-2.0625 3.5117-0.83984 8.0156 2.6719 10.078 1.1445 0.6875 2.4414 0.99219 3.6641 0.99219 2.5195 0 5.0391-1.2969 6.4141-3.6641l5.2656-9.082c2.0586-3.5898 0.83594-8.0938-2.6719-10.078z"></path>
  <path d="m525.42 521.75c1.375-2.9023 2.2148-6.0312 2.2148-9.4648 0-9.6172-6.1836-17.711-14.734-20.762v-43.129c0-4.0469-3.2812-7.3281-7.3281-7.3281-4.0469 0-7.3281 3.2812-7.3281 7.3281v43.203c-8.5508 3.0547-14.734 11.145-14.734 20.762 0 12.215 9.9219 22.062 22.062 22.062 3.4336 0 6.5664-0.83984 9.4648-2.2148l12.289 12.289c1.4492 1.4492 3.3594 2.1367 5.1914 2.1367 1.9102 0 3.7422-0.6875 5.1914-2.1367 2.9023-2.9023 2.9023-7.5586 0-10.383zm-27.254-9.4688c0-4.0469 3.2812-7.3281 7.3281-7.3281 4.0469 0 7.3281 3.2812 7.3281 7.3281s-3.2812 7.3281-7.3281 7.3281c-4.043 0.078125-7.3281-3.2031-7.3281-7.3281z"></path>
 </g>

      </g>
      </svg>